<svg width="116" height="34" viewBox="0 0 116 34" fill="none" xmlns="http://www.w3.org/2000/svg">
<circle cx="16.677" cy="16.677" r="15.1189" stroke="#F32626" stroke-width="3.11602"/>
<path fill-rule="evenodd" clip-rule="evenodd" d="M12.8629 8.97412H9.12372V24.2676H12.8629V24.0134H12.863V8.97457H12.8629V8.97412ZM17.1056 19.5017H14.7326V17.1426H17.6163C18.7477 17.1426 19.6214 16.849 20.2373 16.2617C20.8532 15.6602 21.1611 15.0525 21.1611 14.2381C21.1611 13.4238 20.8532 12.8233 20.2373 12.236C19.6214 11.6345 18.7477 11.3337 17.6163 11.3337H14.7326V8.97457H17.6163C18.6905 8.97457 19.6501 9.09631 20.4951 9.33979C21.3545 9.56896 22.0778 9.9127 22.665 10.371C23.2522 10.815 23.7034 11.3665 24.0185 12.0253C24.3336 12.6698 24.4911 13.4074 24.4911 14.2381C24.4911 15.384 24.2047 16.3507 23.6318 17.1385C23.0589 17.9262 22.2353 18.5278 21.1611 18.9431L24.706 24.0134H20.2637L17.1056 19.5017Z" fill="#F32626"/>
<path d="M11.6665 28.6088V4.74539C11.2035 4.94007 10.7542 5.16092 10.3204 5.40608V27.9481C10.7542 28.1933 11.2035 28.4141 11.6665 28.6088Z" fill="#F32626"/>
<path d="M46.3794 2.29895C47.2476 2.29895 48.0232 2.39734 48.7061 2.59413C49.4007 2.77934 49.9852 3.05715 50.4598 3.42757C50.9344 3.78642 51.2991 4.23208 51.5537 4.76456C51.8084 5.28546 51.9357 5.88161 51.9357 6.55299C51.9357 7.47904 51.7042 8.2604 51.2412 8.89705C50.7782 9.53371 50.1126 10.0199 49.2444 10.3556L52.1094 14.4534H49.2444L46.692 10.807H42.6463V14.4534H40.1286V2.29895H46.3794ZM42.6463 3.60121V9.50477H46.3794C47.2939 9.50477 48 9.26747 48.4978 8.79287C48.9955 8.3067 49.2444 7.56007 49.2444 6.55299C49.2444 5.54591 48.9955 4.80507 48.4978 4.33047C48 3.8443 47.2939 3.60121 46.3794 3.60121H42.6463Z" fill="white"/>
<path d="M58.8777 13.5852C59.4449 13.5852 59.9716 13.4868 60.4578 13.29C60.9555 13.0932 61.4417 12.8154 61.9163 12.4566L62.6109 13.4984C62.3909 13.6952 62.1305 13.8746 61.8295 14.0366C61.5401 14.1987 61.2218 14.3376 60.8745 14.4534C60.5388 14.5575 60.1858 14.6386 59.8153 14.6964C59.4449 14.7659 59.0745 14.8006 58.7041 14.8006C57.8822 14.8006 57.1298 14.6907 56.4468 14.4707C55.7754 14.2624 55.2025 13.9556 54.7279 13.5505C54.2533 13.1337 53.8828 12.6244 53.6166 12.0225C53.3619 11.4205 53.2346 10.726 53.2346 9.93886C53.2346 9.16329 53.3561 8.47454 53.5992 7.87261C53.8539 7.2591 54.2012 6.74978 54.641 6.34463C55.0925 5.92791 55.625 5.61537 56.2385 5.407C56.852 5.18707 57.5292 5.0771 58.27 5.0771C58.9645 5.0771 59.6186 5.18128 60.2321 5.38964C60.8456 5.598 61.3781 5.90476 61.8295 6.3099C62.281 6.70347 62.6398 7.18386 62.906 7.75107C63.1723 8.31827 63.3054 8.96072 63.3054 9.67841V10.8938H55.8912C56.0301 11.8546 56.36 12.5434 56.8809 12.9601C57.4134 13.3768 58.079 13.5852 58.8777 13.5852ZM58.27 6.20572C57.9343 6.20572 57.6218 6.26939 57.3324 6.39672C57.043 6.52405 56.7883 6.72663 56.5684 7.00444C56.36 7.28226 56.1864 7.6411 56.0475 8.08097C55.9201 8.52085 55.8507 9.05333 55.8391 9.67841H60.7009C60.7009 9.07648 60.6314 8.55557 60.4925 8.1157C60.3536 7.67583 60.1684 7.31698 59.9369 7.03917C59.7169 6.74978 59.4565 6.54142 59.1555 6.41408C58.8661 6.27518 58.571 6.20572 58.27 6.20572Z" fill="white"/>
<path d="M69.5549 13.2379C69.9484 13.2379 70.3073 13.18 70.6314 13.0643C70.9671 12.9369 71.2507 12.7402 71.4822 12.4739C71.7253 12.2077 71.9105 11.8662 72.0378 11.4495C72.1768 11.0328 72.2462 10.5292 72.2462 9.93886C72.2462 9.3485 72.1768 8.84496 72.0378 8.42824C71.9105 8.01152 71.7253 7.67004 71.4822 7.4038C71.2507 7.13756 70.9671 6.94656 70.6314 6.83081C70.3073 6.70347 69.9484 6.63981 69.5549 6.63981H67.3844V13.2379H69.5549ZM64.9536 14.4534V2.29895H67.3844V5.42437H69.5549C70.3536 5.42437 71.0771 5.52855 71.7253 5.73691C72.3851 5.94527 72.9465 6.24624 73.4096 6.63981C73.8726 7.03338 74.2256 7.50798 74.4687 8.06361C74.7234 8.61924 74.8507 9.24432 74.8507 9.93886C74.8507 10.6334 74.7234 11.2585 74.4687 11.8141C74.2256 12.3697 73.8726 12.8443 73.4096 13.2379C72.9465 13.6315 72.3851 13.9325 71.7253 14.1408C71.0771 14.3492 70.3536 14.4534 69.5549 14.4534H64.9536Z" fill="white"/>
<path d="M78.4896 11.5884C78.4896 12.6881 79.1552 13.2379 80.4864 13.2379H82.9173V9.93886H80.4864C79.1552 9.93886 78.4896 10.4887 78.4896 11.5884ZM82.9173 8.72342C82.9173 7.88998 82.6973 7.27647 82.2574 6.8829C81.8291 6.48933 81.2677 6.29254 80.5732 6.29254C80.0523 6.29254 79.543 6.37357 79.0452 6.53563C78.5475 6.68611 78.1018 6.89447 77.7082 7.16071L77.1005 6.11891C77.3552 5.94527 77.633 5.79479 77.9339 5.66746C78.2465 5.54012 78.5648 5.43594 78.8889 5.35491C79.2131 5.26231 79.5314 5.19286 79.8439 5.14655C80.168 5.10025 80.469 5.0771 80.7468 5.0771C81.4877 5.0771 82.1417 5.16392 82.7089 5.33755C83.2761 5.51118 83.7565 5.76006 84.1501 6.08418C84.5436 6.4083 84.8388 6.79608 85.0356 7.24753C85.244 7.6874 85.3481 8.17937 85.3481 8.72342V14.4534H80.4864C78.9121 14.4534 77.7487 14.2161 76.9963 13.7415C76.2555 13.2669 75.8851 12.5492 75.8851 11.5884C75.8851 10.6276 76.2555 9.90992 76.9963 9.43532C77.7487 8.96072 78.9121 8.72342 80.4864 8.72342H82.9173Z" fill="white"/>
<path d="M87.779 6.63981H86.1295V5.42437H87.779V2.64622H90.2099V5.42437H92.9012V6.63981H90.2099V11.1543C90.2099 11.5942 90.2562 11.9704 90.3488 12.2829C90.453 12.5839 90.5861 12.8328 90.7482 13.0296C90.9218 13.2148 91.1186 13.3537 91.3385 13.4463C91.5585 13.5389 91.79 13.5852 92.0331 13.5852C92.3803 13.5852 92.716 13.5331 93.0401 13.4289C93.3643 13.3132 93.6363 13.1916 93.8562 13.0643L94.3771 14.1929C94.0299 14.3665 93.6305 14.5112 93.179 14.627C92.7392 14.7427 92.2993 14.8006 91.8594 14.8006C90.5514 14.8006 89.5443 14.4765 88.8382 13.8283C88.1321 13.18 87.779 12.2887 87.779 11.1543V6.63981Z" fill="white"/>
<path d="M100.1 13.5852C100.667 13.5852 101.194 13.4868 101.68 13.29C102.178 13.0932 102.664 12.8154 103.139 12.4566L103.833 13.4984C103.613 13.6952 103.353 13.8746 103.052 14.0366C102.763 14.1987 102.444 14.3376 102.097 14.4534C101.761 14.5575 101.408 14.6386 101.038 14.6964C100.667 14.7659 100.297 14.8006 99.9266 14.8006C99.1048 14.8006 98.3523 14.6907 97.6694 14.4707C96.998 14.2624 96.425 13.9556 95.9504 13.5505C95.4758 13.1337 95.1054 12.6244 94.8391 12.0225C94.5845 11.4205 94.4572 10.726 94.4572 9.93886C94.4572 9.16329 94.5787 8.47454 94.8218 7.87261C95.0765 7.2591 95.4237 6.74978 95.8636 6.34463C96.315 5.92791 96.8475 5.61537 97.461 5.407C98.0745 5.18707 98.7517 5.0771 99.4925 5.0771C100.187 5.0771 100.841 5.18128 101.455 5.38964C102.068 5.598 102.601 5.90476 103.052 6.3099C103.504 6.70347 103.862 7.18386 104.129 7.75107C104.395 8.31827 104.528 8.96072 104.528 9.67841V10.8938H97.1138C97.2527 11.8546 97.5826 12.5434 98.1035 12.9601C98.636 13.3768 99.3016 13.5852 100.1 13.5852ZM99.4925 6.20572C99.1569 6.20572 98.8443 6.26939 98.5549 6.39672C98.2655 6.52405 98.0109 6.72663 97.7909 7.00444C97.5826 7.28226 97.4089 7.6411 97.27 8.08097C97.1427 8.52085 97.0732 9.05333 97.0617 9.67841H101.923C101.923 9.07648 101.854 8.55557 101.715 8.1157C101.576 7.67583 101.391 7.31698 101.159 7.03917C100.94 6.74978 100.679 6.54142 100.378 6.41408C100.089 6.27518 99.7935 6.20572 99.4925 6.20572Z" fill="white"/>
<path d="M48.3762 28.4843H48.5499L53.0644 18.0663H56.7975V30.2207H54.2798V20.4971H54.1062L49.9389 30.2207H46.9872L42.8199 20.4971H42.6463V30.2207H40.1286V18.0663H43.8617L48.3762 28.4843Z" fill="white"/>
<path d="M60.8711 27.3557C60.8711 28.4554 61.5367 29.0052 62.8679 29.0052H65.2988V25.7062H62.8679C61.5367 25.7062 60.8711 26.256 60.8711 27.3557ZM65.2988 24.4907C65.2988 23.6573 65.0789 23.0438 64.639 22.6502C64.2107 22.2566 63.6493 22.0598 62.9547 22.0598C62.4338 22.0598 61.9245 22.1409 61.4268 22.3029C60.929 22.4534 60.4833 22.6618 60.0898 22.928L59.482 21.8862C59.7367 21.7126 60.0145 21.5621 60.3155 21.4348C60.628 21.3074 60.9464 21.2032 61.2705 21.1222C61.5946 21.0296 61.9129 20.9602 62.2255 20.9139C62.5496 20.8676 62.8506 20.8444 63.1284 20.8444C63.8692 20.8444 64.5232 20.9312 65.0904 21.1049C65.6576 21.2785 66.138 21.5274 66.5316 21.8515C66.9252 22.1756 67.2204 22.5634 67.4171 23.0148C67.6255 23.4547 67.7297 23.9467 67.7297 24.4907V30.2207H62.8679C61.2936 30.2207 60.1303 29.9834 59.3779 29.5088C58.637 29.0342 58.2666 28.3165 58.2666 27.3557C58.2666 26.3949 58.637 25.6772 59.3779 25.2026C60.1303 24.728 61.2936 24.4907 62.8679 24.4907H65.2988Z" fill="white"/>
<path d="M76.5769 22.4071H74.4933C73.7061 22.4071 73.1042 22.6213 72.6875 23.0496C72.2708 23.4663 72.0624 24.0914 72.0624 24.9248V30.2207H69.6315V24.9248C69.6315 23.7441 70.0019 22.8296 70.7428 22.1814C71.4952 21.5216 72.5717 21.1917 73.9724 21.1917H76.5769V22.4071Z" fill="white"/>
<path d="M81.866 26.2271H80.0428V30.2207H77.6119V18.0663H80.0428V25.0116H81.866L84.5573 21.1917H87.1618L84.1232 25.5325L87.3354 30.2207H84.5573L81.866 26.2271Z" fill="white"/>
<path d="M93.241 29.3525C93.8082 29.3525 94.3349 29.2541 94.8211 29.0573C95.3189 28.8605 95.805 28.5827 96.2796 28.2239L96.9742 29.2657C96.7542 29.4625 96.4938 29.6419 96.1928 29.8039C95.9034 29.966 95.5851 30.1049 95.2378 30.2207C94.9021 30.3248 94.5491 30.4059 94.1787 30.4637C93.8082 30.5332 93.4378 30.5679 93.0674 30.5679C92.2455 30.5679 91.4931 30.458 90.8102 30.238C90.1388 30.0297 89.5658 29.7229 89.0912 29.3178C88.6166 28.901 88.2462 28.3917 87.9799 27.7898C87.7253 27.1878 87.5979 26.4933 87.5979 25.7062C87.5979 24.9306 87.7195 24.2418 87.9626 23.6399C88.2172 23.0264 88.5645 22.5171 89.0044 22.1119C89.4558 21.6952 89.9883 21.3827 90.6018 21.1743C91.2153 20.9544 91.8925 20.8444 92.6333 20.8444C93.3279 20.8444 93.9819 20.9486 94.5954 21.1569C95.2089 21.3653 95.7414 21.6721 96.1928 22.0772C96.6443 22.4708 97.0031 22.9512 97.2694 23.5184C97.5356 24.0856 97.6687 24.728 97.6687 25.4457V26.6612H90.2545C90.3934 27.6219 90.7233 28.3107 91.2442 28.7274C91.7767 29.1441 92.4423 29.3525 93.241 29.3525ZM92.6333 21.973C92.2976 21.973 91.9851 22.0367 91.6957 22.164C91.4063 22.2914 91.1516 22.4939 90.9317 22.7717C90.7233 23.0496 90.5497 23.4084 90.4108 23.8483C90.2835 24.2882 90.214 24.8206 90.2024 25.4457H95.0642C95.0642 24.8438 94.9947 24.3229 94.8558 23.883C94.7169 23.4431 94.5317 23.0843 94.3002 22.8065C94.0803 22.5171 93.8198 22.3087 93.5188 22.1814C93.2295 22.0425 92.9343 21.973 92.6333 21.973Z" fill="white"/>
<path d="M99.7591 22.4071H98.1096V21.1917H99.7591V18.4135H102.19V21.1917H104.881V22.4071H102.19V26.9216C102.19 27.3615 102.236 27.7377 102.329 28.0502C102.433 28.3512 102.566 28.6001 102.728 28.7969C102.902 28.9821 103.099 29.121 103.319 29.2136C103.539 29.3062 103.77 29.3525 104.013 29.3525C104.36 29.3525 104.696 29.3004 105.02 29.1962C105.344 29.0805 105.616 28.9589 105.836 28.8316L106.357 29.9602C106.01 30.1338 105.611 30.2785 105.159 30.3943C104.719 30.51 104.279 30.5679 103.84 30.5679C102.531 30.5679 101.524 30.2438 100.818 29.5956C100.112 28.9473 99.7591 28.056 99.7591 26.9216V22.4071Z" fill="white"/>
<path d="M109.141 23.1016C109.141 23.3679 109.257 23.611 109.489 23.8309C109.732 24.0508 110.137 24.2418 110.704 24.4039L113.396 25.1853C114.229 25.4283 114.871 25.7583 115.323 26.175C115.774 26.5917 116 27.13 116 27.7898C116 28.2065 115.913 28.5885 115.74 28.9358C115.566 29.2715 115.282 29.5608 114.889 29.8039C114.495 30.047 113.986 30.2322 113.361 30.3596C112.736 30.4985 111.966 30.5679 111.051 30.5679C110.577 30.5679 110.108 30.5332 109.645 30.4637C109.194 30.3943 108.759 30.3017 108.343 30.1859C107.938 30.0586 107.567 29.9197 107.231 29.7692C106.896 29.6071 106.606 29.4393 106.363 29.2657L107.058 28.2239C107.544 28.5248 108.111 28.7911 108.759 29.0226C109.419 29.2425 110.183 29.3525 111.051 29.3525C111.92 29.3525 112.527 29.2367 112.875 29.0052C113.222 28.7737 113.396 28.4843 113.396 28.137C113.396 27.8708 113.274 27.6335 113.031 27.4251C112.788 27.2052 112.359 27.0084 111.746 26.8348L109.055 26.0534C108.314 25.8335 107.706 25.521 107.231 25.1158C106.768 24.6991 106.537 24.1435 106.537 23.4489C106.537 23.0785 106.618 22.737 106.78 22.4245C106.954 22.1004 107.22 21.8225 107.579 21.591C107.938 21.3595 108.395 21.1801 108.95 21.0528C109.506 20.9139 110.177 20.8444 110.965 20.8444C111.925 20.8444 112.794 20.9775 113.569 21.2438C114.356 21.4984 114.993 21.7994 115.479 22.1467L114.785 23.1885C114.31 22.8875 113.772 22.627 113.17 22.4071C112.568 22.1756 111.833 22.0598 110.965 22.0598C110.351 22.0598 109.894 22.1582 109.593 22.355C109.292 22.5518 109.141 22.8007 109.141 23.1016Z" fill="white"/>
</svg>
