<svg width="13" height="13" viewBox="0 0 13 13" fill="none" xmlns="http://www.w3.org/2000/svg">
<g clip-path="url(#clip0_11_1170)">
<path d="M12.6591 1.73376C12.4318 1.50643 12.1585 1.39282 11.8393 1.39282H1.16074C0.841552 1.39282 0.568251 1.50643 0.34094 1.73376C0.113604 1.96105 0 2.23432 0 2.55356V10.4465C0 10.7658 0.113604 11.0388 0.34094 11.2661C0.568226 11.4936 0.841527 11.6072 1.16074 11.6072H11.8394C12.1585 11.6072 12.4318 11.4936 12.6591 11.2661C12.8865 11.0388 13 10.7656 13 10.4465V2.55356C13 2.23432 12.8865 1.96105 12.6591 1.73376ZM12.0713 10.4463C12.0713 10.5092 12.0484 10.5636 12.0024 10.6095C11.9564 10.6555 11.902 10.6783 11.8393 10.6783H1.16067C1.0978 10.6783 1.04338 10.6555 0.997463 10.6095C0.951498 10.5636 0.928553 10.5092 0.928553 10.4463V4.87492C1.0833 5.04903 1.25016 5.20865 1.42911 5.35371C2.72529 6.34998 3.7554 7.16726 4.51956 7.80569C4.7662 8.01369 4.96694 8.17568 5.12168 8.29177C5.27642 8.40792 5.48559 8.52515 5.74913 8.64359C6.0127 8.7622 6.26059 8.82122 6.49273 8.82122H6.50003H6.50724C6.73933 8.82122 6.98732 8.7622 7.25079 8.64359C7.51444 8.52515 7.72373 8.40794 7.87842 8.29177C8.03314 8.17568 8.2339 8.01369 8.48057 7.80569C9.24473 7.16726 10.2747 6.34998 11.5709 5.35371C11.7499 5.20867 11.9168 5.04903 12.0713 4.87492V10.4463ZM12.0713 2.74213V2.82191C12.0713 3.10723 11.959 3.42525 11.7341 3.77585C11.5092 4.12644 11.2661 4.40579 11.0051 4.61369C10.0716 5.34893 9.10205 6.1154 8.0959 6.91337C8.06693 6.93754 7.98222 7.00884 7.84191 7.12727C7.7018 7.24588 7.59051 7.33667 7.50826 7.39945C7.42591 7.46242 7.31843 7.53857 7.18549 7.62796C7.05245 7.71735 6.93036 7.78397 6.81914 7.82744C6.70792 7.87082 6.60392 7.89254 6.50724 7.89254H6.50003H6.49273C6.39603 7.89254 6.29213 7.87082 6.18084 7.82744C6.06962 7.78397 5.94745 7.71735 5.81451 7.62796C5.6816 7.53854 5.57396 7.46239 5.49174 7.39945C5.40956 7.33667 5.29827 7.24588 5.15806 7.12727C5.01781 7.00884 4.93309 6.93754 4.9041 6.91337C3.89818 6.11537 2.92854 5.34893 1.99508 4.61369C1.2841 4.05276 0.92868 3.36595 0.92868 2.55344C0.92868 2.49063 0.951625 2.43617 0.99759 2.39029C1.04356 2.34432 1.09793 2.32132 1.16079 2.32132H11.8394C11.878 2.34305 11.9119 2.3491 11.941 2.33949C11.97 2.32971 11.9917 2.3479 12.0062 2.39382C12.0207 2.43978 12.034 2.46151 12.0461 2.45912C12.0582 2.45668 12.0655 2.48689 12.0679 2.54985C12.0702 2.61269 12.0714 2.64433 12.0714 2.64433V2.74213H12.0713Z" fill="#F32626"/>
</g>
<defs>
<clipPath id="clip0_11_1170">
<rect width="13" height="13" fill="white"/>
</clipPath>
</defs>
</svg>
