<svg width="13" height="13" viewBox="0 0 13 13" fill="none" xmlns="http://www.w3.org/2000/svg">
<g clip-path="url(#clip0_11_1188)">
<path d="M12.2017 9.17881C12.1802 9.16094 9.74716 7.41975 9.087 7.53391C8.76972 7.58997 8.58813 7.80609 8.22453 8.23956C8.16603 8.30944 8.02506 8.47641 7.91619 8.59544C7.68638 8.52057 7.46224 8.42934 7.24547 8.32244C6.12646 7.77766 5.22234 6.87354 4.67756 5.75453C4.57066 5.53776 4.47943 5.31362 4.40456 5.08381C4.524 4.97453 4.69137 4.83356 4.76288 4.77344C5.19391 4.41187 5.41003 4.23028 5.46609 3.91259C5.58106 3.25487 3.83906 0.819813 3.82119 0.797875C3.74186 0.685367 3.63854 0.591876 3.51868 0.524151C3.39883 0.456426 3.26543 0.416156 3.12812 0.40625C2.42206 0.40625 0.40625 3.02087 0.40625 3.46166C0.40625 3.48725 0.443219 6.08887 3.65138 9.35228C6.91113 12.5568 9.51275 12.5938 9.53834 12.5938C9.97913 12.5938 12.5938 10.5779 12.5938 9.87187C12.5839 9.73452 12.5435 9.60108 12.4757 9.48122C12.4079 9.36135 12.3143 9.25806 12.2017 9.17881ZM9.49366 11.7788C9.13859 11.7496 6.95541 11.4615 4.22581 8.77987C1.53034 6.03566 1.24962 3.84638 1.22159 3.50716C1.7541 2.67136 2.3972 1.91141 3.13341 1.248C3.14966 1.26425 3.17119 1.28863 3.19881 1.32031C3.76343 2.09106 4.24981 2.91617 4.65075 3.78341C4.52037 3.91457 4.38256 4.03814 4.238 4.1535C4.01383 4.32431 3.80798 4.51791 3.62375 4.73119L3.52503 4.86931L3.55428 5.03628C3.64026 5.4087 3.77193 5.76907 3.94631 6.10919C4.57108 7.39213 5.60778 8.42869 6.89081 9.05328C7.23086 9.22791 7.59125 9.35973 7.96372 9.44572L8.13069 9.47497L8.26881 9.37625C8.4829 9.19121 8.67731 8.98455 8.84894 8.75956C8.97609 8.60763 9.14631 8.40491 9.2105 8.34763C10.0802 8.74817 10.9074 9.23514 11.6797 9.80119C11.7134 9.82963 11.737 9.85156 11.7528 9.86578C11.0895 10.6022 10.3296 11.2455 9.49366 11.778V11.7788Z" fill="#F32626"/>
</g>
<defs>
<clipPath id="clip0_11_1188">
<rect width="13" height="13" fill="white"/>
</clipPath>
</defs>
</svg>
