<svg width="17" height="17" viewBox="0 0 17 17" fill="none" xmlns="http://www.w3.org/2000/svg">
<path d="M6.85119 9.18515C6.80387 9.18515 5.76289 9.18515 5.28972 9.18515C5.03736 9.18515 4.9585 9.09051 4.9585 8.85392C4.9585 8.22303 4.9585 7.57636 4.9585 6.94546C4.9585 6.6931 5.05313 6.61424 5.28972 6.61424H6.85119C6.85119 6.56692 6.85119 5.65212 6.85119 5.22626C6.85119 4.59537 6.9616 3.99601 7.27704 3.44398C7.60827 2.87617 8.08144 2.49763 8.68079 2.27682C9.0751 2.13487 9.46941 2.07178 9.89527 2.07178H11.441C11.6618 2.07178 11.7564 2.16641 11.7564 2.38723V4.18528C11.7564 4.4061 11.6618 4.50073 11.441 4.50073C11.0151 4.50073 10.5893 4.50073 10.1634 4.5165C9.73754 4.5165 9.51673 4.72155 9.51673 5.16317C9.50096 5.63635 9.51673 6.09375 9.51673 6.58269H11.3463C11.5987 6.58269 11.6933 6.67733 11.6933 6.92969V8.83815C11.6933 9.09051 11.6145 9.16937 11.3463 9.16937C10.7785 9.16937 9.56405 9.16937 9.51673 9.16937V14.3112C9.51673 14.5793 9.43787 14.674 9.15396 14.674C8.49152 14.674 7.84485 14.674 7.18241 14.674C6.94582 14.674 6.85119 14.5793 6.85119 14.3427C6.85119 12.6866 6.85119 9.23246 6.85119 9.18515Z" fill="white"/>
</svg>
