<svg width="16" height="16" viewBox="0 0 16 16" fill="none" xmlns="http://www.w3.org/2000/svg">
<g clip-path="url(#clip0_11_266)">
<g clip-path="url(#clip1_11_266)">
<path d="M14.9969 5.62775C14.9658 4.92164 14.8516 4.4362 14.688 4.01556C14.5193 3.56906 14.2597 3.16931 13.9196 2.837C13.5873 2.49952 13.1849 2.23727 12.7435 2.07117C12.3205 1.9076 11.8376 1.79341 11.1315 1.76228C10.4201 1.72851 10.1943 1.7207 8.39 1.7207C6.58575 1.7207 6.35992 1.72851 5.65118 1.75964C4.94508 1.79078 4.45964 1.90506 4.0391 2.06853C3.5925 2.23727 3.19275 2.49688 2.86043 2.837C2.52295 3.16931 2.26081 3.5717 2.0946 4.01303C1.93103 4.4362 1.81685 4.91901 1.78571 5.62511C1.75195 6.33649 1.74414 6.56232 1.74414 8.36657C1.74414 10.1708 1.75195 10.3967 1.78308 11.1054C1.81421 11.8115 1.9285 12.2969 2.09207 12.7176C2.26081 13.1641 2.52295 13.5638 2.86043 13.8961C3.19275 14.2336 3.59513 14.4959 4.03646 14.662C4.45964 14.8255 4.94244 14.9397 5.64864 14.9709C6.35728 15.0021 6.58322 15.0098 8.38747 15.0098C10.1917 15.0098 10.4176 15.0021 11.1263 14.9709C11.8324 14.9397 12.3178 14.8255 12.7384 14.662C13.6315 14.3167 14.3376 13.6106 14.6829 12.7176C14.8463 12.2944 14.9606 11.8115 14.9918 11.1054C15.0229 10.3967 15.0307 10.1708 15.0307 8.36657C15.0307 6.56232 15.0281 6.33649 14.9969 5.62775ZM13.8002 11.0535C13.7716 11.7025 13.6626 12.0529 13.5717 12.2866C13.3484 12.8655 12.889 13.325 12.31 13.5483C12.0764 13.6392 11.7234 13.7482 11.0769 13.7767C10.376 13.8079 10.1658 13.8156 8.39264 13.8156C6.61952 13.8156 6.40667 13.8079 5.70827 13.7767C5.05926 13.7482 4.7088 13.6392 4.47515 13.5483C4.18705 13.4418 3.92481 13.2731 3.71196 13.0524C3.49129 12.8369 3.32255 12.5773 3.21607 12.2892C3.12521 12.0556 3.0162 11.7025 2.9877 11.0561C2.95647 10.3552 2.94876 10.1449 2.94876 8.37174C2.94876 6.59862 2.95647 6.38577 2.9877 5.68747C3.0162 5.03846 3.12521 4.688 3.21607 4.45436C3.32255 4.16615 3.49129 3.90401 3.71459 3.69106C3.92998 3.47039 4.18959 3.30165 4.47779 3.19528C4.71143 3.10441 5.06453 2.9954 5.71091 2.9668C6.41184 2.93567 6.62216 2.92786 8.39517 2.92786C10.1709 2.92786 10.3811 2.93567 11.0795 2.9668C11.7286 2.9954 12.079 3.10441 12.3127 3.19528C12.6008 3.30165 12.863 3.47039 13.0759 3.69106C13.2965 3.90655 13.4653 4.16615 13.5717 4.45436C13.6626 4.688 13.7716 5.041 13.8002 5.68747C13.8313 6.38841 13.8392 6.59862 13.8392 8.37174C13.8392 10.1449 13.8313 10.3525 13.8002 11.0535Z" fill="white"/>
<path d="M8.39006 4.95264C6.50539 4.95264 4.97626 6.48166 4.97626 8.36643C4.97626 10.2512 6.50539 11.7802 8.39006 11.7802C10.2748 11.7802 11.8038 10.2512 11.8038 8.36643C11.8038 6.48166 10.2748 4.95264 8.39006 4.95264ZM8.39006 10.5809C7.16738 10.5809 6.17561 9.58921 6.17561 8.36643C6.17561 7.14365 7.16738 6.15199 8.39006 6.15199C9.61283 6.15199 10.6045 7.14365 10.6045 8.36643C10.6045 9.58921 9.61283 10.5809 8.39006 10.5809Z" fill="white"/>
<path d="M12.7359 4.81747C12.7359 5.25758 12.379 5.61444 11.9388 5.61444C11.4987 5.61444 11.1419 5.25758 11.1419 4.81747C11.1419 4.37726 11.4987 4.02051 11.9388 4.02051C12.379 4.02051 12.7359 4.37726 12.7359 4.81747Z" fill="white"/>
</g>
</g>
<defs>
<clipPath id="clip0_11_266">
<rect width="14.8526" height="14.8526" fill="white" transform="translate(0.939095 0.939453)"/>
</clipPath>
<clipPath id="clip1_11_266">
<rect width="13.2891" height="13.2891" fill="white" transform="translate(1.72081 1.7207)"/>
</clipPath>
</defs>
</svg>
