<svg width="17" height="17" viewBox="0 0 17 17" fill="none" xmlns="http://www.w3.org/2000/svg">
<path d="M14.9167 14.9164V10.2162C14.9167 7.90619 14.4194 6.1416 11.7244 6.1416C10.425 6.1416 9.55879 6.84744 9.20588 7.52119H9.17379V6.35014H6.62317V14.9164H9.28609V10.6654C9.28609 9.54244 9.49463 8.46764 10.8742 8.46764C12.2378 8.46764 12.2538 9.73494 12.2538 10.7295V14.9004H14.9167V14.9164Z" fill="white"/>
<path d="M2.29195 6.3501H4.95487V14.9163H2.29195V6.3501Z" fill="white"/>
<path d="M3.62341 2.08301C2.7732 2.08301 2.08341 2.7728 2.08341 3.62301C2.08341 4.47322 2.7732 5.17905 3.62341 5.17905C4.47362 5.17905 5.16341 4.47322 5.16341 3.62301C5.16341 2.7728 4.47362 2.08301 3.62341 2.08301Z" fill="white"/>
</svg>
