<svg width="14" height="12" viewBox="0 0 14 12" fill="none" xmlns="http://www.w3.org/2000/svg">
<path d="M13.0625 1.77079C12.5803 1.98233 12.0664 2.12255 11.5307 2.19063C12.0818 1.86157 12.5025 1.34447 12.7002 0.721199C12.1864 1.02757 11.619 1.24397 11.0144 1.36473C10.5265 0.845205 9.83106 0.523438 9.07244 0.523438C7.60058 0.523438 6.41563 1.71811 6.41563 3.18268C6.41563 3.39341 6.43346 3.59603 6.47723 3.78893C4.267 3.68113 2.31128 2.62181 0.99746 1.00811C0.768089 1.40607 0.633547 1.86157 0.633547 2.35192C0.633547 3.27264 1.10769 4.08881 1.81444 4.56133C1.38731 4.55323 0.968282 4.42922 0.613284 4.23389C0.613284 4.242 0.613284 4.25253 0.613284 4.26307C0.613284 5.555 1.53482 6.6281 2.74327 6.8753C2.52687 6.93447 2.29101 6.96283 2.04624 6.96283C1.87604 6.96283 1.70421 6.95311 1.54292 6.91745C1.88739 7.97028 2.86484 8.74431 4.0271 8.76943C3.12258 9.477 1.97411 9.90332 0.730806 9.90332C0.512783 9.90332 0.303675 9.89359 0.0945663 9.86685C1.27222 10.6263 2.66789 11.0599 4.17299 11.0599C9.06514 11.0599 11.7398 7.00741 11.7398 3.49472C11.7398 3.3772 11.7357 3.26373 11.7301 3.15107C12.2577 2.77662 12.701 2.30896 13.0625 1.77079Z" fill="white"/>
</svg>
