<svg width="15" height="11" viewBox="0 0 15 11" fill="none" xmlns="http://www.w3.org/2000/svg">
<path d="M13.7865 2.0873C13.6321 1.48342 13.1797 1.00739 12.606 0.84478C11.5578 0.542969 7.36519 0.542969 7.36519 0.542969C7.36519 0.542969 3.1727 0.542969 2.12455 0.833337C1.56185 0.995772 1.0984 1.4835 0.944054 2.0873C0.668222 3.19027 0.668222 5.47769 0.668222 5.47769C0.668222 5.47769 0.668222 7.77663 0.944054 8.86807C1.09857 9.47187 1.55082 9.9479 2.12464 10.1105C3.18373 10.4124 7.36535 10.4124 7.36535 10.4124C7.36535 10.4124 11.5578 10.4124 12.606 10.122C13.1798 9.95951 13.6321 9.48348 13.7866 8.87969C14.0624 7.77663 14.0624 5.4893 14.0624 5.4893C14.0624 5.4893 14.0734 3.19027 13.7865 2.0873ZM6.03034 7.59088V3.36449L9.51674 5.47769L6.03034 7.59088Z" fill="white"/>
</svg>
